<?xml version="1.0" standalone="no"?>
<!DOCTYPE svg PUBLIC "-//W3C//DTD SVG 20010904//EN"
 "http://www.w3.org/TR/2001/REC-SVG-20010904/DTD/svg10.dtd">
<svg version="1.0" xmlns="http://www.w3.org/2000/svg"
 width="1000.000000pt" height="550.000000pt" viewBox="0 0 1000.000000 550.000000"
 preserveAspectRatio="xMidYMid meet">

<g transform="translate(0.000000,550.000000) scale(0.100000,-0.100000)"
fill="#000000" stroke="none">
<path d="M2044 5135 c-33 -7 -84 -23 -113 -36 -49 -20 -55 -27 -90 -98 -43
-84 -84 -204 -102 -296 -8 -42 -10 -120 -5 -255 5 -156 4 -204 -8 -243 -11
-37 -12 -63 -5 -116 8 -57 6 -95 -16 -229 -14 -88 -25 -162 -25 -164 0 -3 -39
-8 -86 -12 -106 -9 -191 -34 -269 -81 -72 -44 -119 -88 -136 -126 -8 -21 -22
-32 -49 -39 -29 -8 -64 -37 -150 -127 -382 -397 -596 -812 -721 -1393 -25
-118 -30 -159 -25 -220 7 -96 37 -203 83 -293 40 -80 146 -198 205 -228 113
-58 275 -109 429 -134 208 -33 526 35 796 171 69 35 131 64 136 64 5 0 40 -9
78 -20 53 -16 84 -34 140 -81 78 -65 85 -67 159 -31 44 21 96 118 111 209 9
52 17 68 45 93 50 43 144 281 258 654 34 110 67 201 73 203 13 5 14 3 38 -147
26 -160 89 -394 191 -716 79 -248 106 -279 276 -309 l98 -17 86 37 87 38 221
-42 c308 -57 404 -53 561 24 61 31 80 47 145 128 41 51 91 104 110 118 43 31
74 107 120 293 37 152 56 280 76 521 9 105 18 200 20 212 3 17 26 34 82 62 71
36 82 46 126 111 l48 72 -11 77 c-14 103 -41 176 -101 276 -45 75 -147 185
-170 185 -5 0 -27 24 -49 54 -32 43 -56 62 -128 99 -230 118 -595 203 -838
195 -99 -3 -102 -4 -219 -61 -217 -105 -395 -227 -519 -355 -77 -81 -83 -79
-73 26 6 57 -1 104 -44 317 -46 227 -50 258 -45 336 7 84 5 95 -69 394 -42
169 -92 348 -112 398 -97 251 -219 412 -379 496 -47 25 -144 27 -241 6z m-354
-1870 c35 -18 35 -17 13 -143 -27 -151 -24 -567 4 -721 20 -105 20 -117 6
-145 -22 -42 -11 -123 32 -254 41 -122 86 -211 160 -318 48 -68 52 -79 44
-107 -15 -57 -173 -183 -294 -236 -27 -12 -130 -42 -229 -67 -166 -42 -188
-45 -305 -44 -145 0 -264 21 -384 68 -133 52 -180 86 -244 179 l-56 83 2 86
c2 111 32 284 71 405 34 109 205 458 304 624 128 212 289 340 689 549 115 59
140 65 187 41z m2533 -460 c82 -33 210 -114 231 -147 13 -20 13 -43 0 -193
-27 -330 -62 -520 -126 -690 -27 -71 -40 -90 -115 -166 -70 -71 -98 -92 -160
-119 l-76 -34 -96 17 -96 16 -152 158 c-113 118 -151 163 -148 178 62 299 239
821 300 885 35 36 112 78 199 107 87 29 144 26 239 -12z"/>
<path d="M6440 5064 l-105 -12 -38 -43 c-143 -162 -247 -369 -293 -581 -25
-117 -30 -346 -10 -447 19 -91 61 -195 102 -248 14 -18 32 -53 40 -76 33 -98
247 -206 439 -222 61 -5 85 -2 179 27 l109 34 109 157 110 158 -12 162 c-24
342 -64 561 -133 724 -99 233 -203 345 -348 371 -25 4 -88 3 -149 -4z"/>
<path d="M8296 3536 c-351 -161 -597 -366 -709 -591 -73 -146 -81 -181 -85
-384 -6 -307 36 -535 192 -1036 81 -261 85 -270 138 -323 42 -40 50 -44 154
-64 l109 -21 83 37 83 38 72 -12 c40 -7 139 -25 220 -41 175 -34 265 -36 371
-9 126 32 184 69 260 165 62 78 107 123 142 143 20 11 86 211 113 339 26 128
58 379 69 545 5 82 13 132 22 143 8 9 44 32 82 51 58 29 74 43 113 101 52 79
56 108 26 225 -37 144 -129 295 -223 364 -35 25 -74 64 -88 85 -19 31 -46 50
-120 88 -230 119 -502 187 -780 197 l-145 5 -99 -45z m617 -715 c86 -30 193
-89 245 -136 l45 -41 -17 -198 c-28 -324 -63 -512 -126 -674 -27 -71 -39 -87
-123 -168 -73 -72 -106 -96 -160 -119 l-67 -28 -98 16 -97 16 -137 143 c-75
79 -142 153 -149 165 -24 45 60 352 193 703 39 102 77 193 86 203 47 53 237
136 313 137 20 0 61 -9 92 -19z"/>
<path d="M6463 3046 c-55 -26 -122 -103 -123 -141 0 -11 14 -71 31 -133 l32
-114 63 -49 62 -50 21 -87 c51 -219 60 -397 41 -864 -11 -282 -28 -409 -71
-545 l-29 -92 -63 -35 c-35 -19 -89 -55 -122 -80 -33 -26 -69 -46 -83 -46 -53
0 -280 53 -406 94 -74 24 -201 75 -282 114 -176 82 -345 147 -509 197 -66 19
-128 38 -139 41 -17 6 -18 2 -14 -45 3 -27 11 -57 18 -66 7 -8 92 -75 189
-149 123 -94 184 -148 203 -178 39 -64 113 -215 134 -276 28 -81 139 -193 219
-222 166 -61 243 -75 395 -74 131 0 153 3 230 28 152 50 287 136 358 229 83
109 133 245 146 397 4 41 16 173 26 293 34 373 59 807 50 862 -31 182 -20 408
27 576 14 52 26 105 26 119 0 14 -15 64 -32 112 l-32 86 -93 61 c-89 59 -94
61 -156 61 -48 0 -79 -7 -117 -24z"/>
</g>
</svg>
